<svg xmlns="http://www.w3.org/2000/svg" width="150" height="100" viewBox="0 0 150 100">
  <g id="Table3" transform="translate(-455 -320)">
    <rect id="area" width="150" height="100" rx="5" transform="translate(455 320)" fill="rgba(0,0,0,0.2)"/>
    <g id="Grupo_1370" data-name="Grupo 1370" transform="translate(464 330)">
      <g id="chair" transform="translate(24 25) rotate(90)">
        <g id="chair-2" data-name="chair" transform="translate(0 16)" fill="#499eff" stroke="#000" stroke-width="2">
          <rect width="30" height="8" rx="4" stroke="none"/>
          <rect x="1" y="1" width="28" height="6" rx="3" fill="none"/>
        </g>
        <g id="chair-3" data-name="chair" transform="translate(5)" fill="#499eff" stroke="#000" stroke-width="2">
          <rect width="20" height="18" stroke="none"/>
          <rect x="1" y="1" width="18" height="16" fill="none"/>
        </g>
      </g>
      <g id="chair-4" data-name="chair" transform="translate(28 57)">
        <g id="chair-5" data-name="chair" transform="translate(0 16)" fill="#499eff" stroke="#000" stroke-width="2">
          <rect width="30" height="8" rx="4" stroke="none"/>
          <rect x="1" y="1" width="28" height="6" rx="3" fill="none"/>
        </g>
        <g id="chair-6" data-name="chair" transform="translate(5)" fill="#499eff" stroke="#000" stroke-width="2">
          <rect width="20" height="18" stroke="none"/>
          <rect x="1" y="1" width="18" height="16" fill="none"/>
        </g>
      </g>
      <g id="chair-7" data-name="chair" transform="translate(74)">
        <g id="chair-8" data-name="chair" fill="#499eff" stroke="#000" stroke-width="2">
          <rect width="30" height="8" rx="4" stroke="none"/>
          <rect x="1" y="1" width="28" height="6" rx="3" fill="none"/>
        </g>
        <g id="chair-9" data-name="chair" transform="translate(5 6)" fill="#499eff" stroke="#000" stroke-width="2">
          <rect width="20" height="18" stroke="none"/>
          <rect x="1" y="1" width="18" height="16" fill="none"/>
        </g>
      </g>
      <g id="chair-10" data-name="chair" transform="translate(74 56)">
        <g id="chair-11" data-name="chair" transform="translate(0 16)" fill="#499eff" stroke="#000" stroke-width="2">
          <rect width="30" height="8" rx="4" stroke="none"/>
          <rect x="1" y="1" width="28" height="6" rx="3" fill="none"/>
        </g>
        <g id="chair-12" data-name="chair" transform="translate(5)" fill="#499eff" stroke="#000" stroke-width="2">
          <rect width="20" height="18" stroke="none"/>
          <rect x="1" y="1" width="18" height="16" fill="none"/>
        </g>
      </g>
      <g id="chair-13" data-name="chair" transform="translate(28)">
        <g id="chair-14" data-name="chair" fill="#499eff" stroke="#000" stroke-width="2">
          <rect width="30" height="8" rx="4" stroke="none"/>
          <rect x="1" y="1" width="28" height="6" rx="3" fill="none"/>
        </g>
        <g id="chair-15" data-name="chair" transform="translate(5 6)" fill="#499eff" stroke="#000" stroke-width="2">
          <rect width="20" height="18" stroke="none"/>
          <rect x="1" y="1" width="18" height="16" fill="none"/>
        </g>
      </g>
      <g id="chair-16" data-name="chair" transform="translate(133 25) rotate(90)">
        <g id="chair-17" data-name="chair" transform="translate(0 0)" fill="#499eff" stroke="#000" stroke-width="2">
          <rect width="30" height="8" rx="4" stroke="none"/>
          <rect x="1" y="1" width="28" height="6" rx="3" fill="none"/>
        </g>
        <g id="chair-18" data-name="chair" transform="translate(5 6)" fill="#499eff" stroke="#000" stroke-width="2">
          <rect width="20" height="18" stroke="none"/>
          <rect x="1" y="1" width="18" height="16" fill="none"/>
        </g>
      </g>
      <g id="chair-19" data-name="chair" transform="translate(16 15)" fill="#499eff" stroke="#000" stroke-width="2">
        <rect width="100" height="50" rx="5" stroke="none"/>
        <rect x="1" y="1" width="98" height="48" rx="4" fill="none"/>
      </g>
    </g>
  </g>
</svg>
