<svg xmlns="http://www.w3.org/2000/svg" width="100" height="100" viewBox="0 0 100 100">
  <g id="Table2" transform="translate(-455 -320)">
    <rect id="area" width="100" height="100" rx="5" transform="translate(455 320)" fill="rgba(0,0,0,0.2)"/>
    <g id="chair">
      <g id="Grupo_1322" data-name="Grupo 1322" transform="translate(-2 8)">
        <g id="chair-2" data-name="chair" transform="translate(492 323)" fill="#499eff" stroke="#000" stroke-width="2">
          <rect width="30" height="8" rx="4" stroke="none"/>
          <rect x="1" y="1" width="28" height="6" rx="3" fill="none"/>
        </g>
        <g id="chair-3" data-name="chair" transform="translate(497 329)" fill="#499eff" stroke="#000" stroke-width="2">
          <rect width="20" height="18" stroke="none"/>
          <rect x="1" y="1" width="18" height="16" fill="none"/>
        </g>
      </g>
      <g id="Grupo_1323" data-name="Grupo 1323" transform="translate(869 -137) rotate(90)">
        <g id="chair-4" data-name="chair" transform="translate(492 323)" fill="#499eff" stroke="#000" stroke-width="2">
          <rect width="30" height="8" rx="4" stroke="none"/>
          <rect x="1" y="1" width="28" height="6" rx="3" fill="none"/>
        </g>
        <g id="chair-5" data-name="chair" transform="translate(497 329)" fill="#499eff" stroke="#000" stroke-width="2">
          <rect width="20" height="18" stroke="none"/>
          <rect x="1" y="1" width="18" height="16" fill="none"/>
        </g>
      </g>
      <g id="Grupo_1324" data-name="Grupo 1324" transform="translate(488 355) rotate(90)">
        <g id="chair-6" data-name="chair" transform="translate(0 16)" fill="#499eff" stroke="#000" stroke-width="2">
          <rect width="30" height="8" rx="4" stroke="none"/>
          <rect x="1" y="1" width="28" height="6" rx="3" fill="none"/>
        </g>
        <g id="chair-7" data-name="chair" transform="translate(5 0)" fill="#499eff" stroke="#000" stroke-width="2">
          <rect width="20" height="18" stroke="none"/>
          <rect x="1" y="1" width="18" height="16" fill="none"/>
        </g>
      </g>
      <g id="Grupo_1325" data-name="Grupo 1325" transform="translate(490 387)">
        <g id="chair-8" data-name="chair" transform="translate(0 16)" fill="#499eff" stroke="#000" stroke-width="2">
          <rect width="30" height="8" rx="4" stroke="none"/>
          <rect x="1" y="1" width="28" height="6" rx="3" fill="none"/>
        </g>
        <g id="chair-9" data-name="chair" transform="translate(5)" fill="#499eff" stroke="#000" stroke-width="2">
          <rect width="20" height="18" stroke="none"/>
          <rect x="1" y="1" width="18" height="16" fill="none"/>
        </g>
      </g>
      <g id="chair-10" data-name="chair" transform="translate(480 345)" fill="#499eff" stroke="#000" stroke-width="2">
        <rect width="50" height="50" rx="5" stroke="none"/>
        <rect x="1" y="1" width="48" height="48" rx="4" fill="none"/>
      </g>
    </g>
  </g>
</svg>
